<?xml version="1.0" encoding="UTF-8"?>
<svg width="94px" height="94px" viewBox="0 0 94 94" version="1.1" xmlns="http://www.w3.org/2000/svg" xmlns:xlink="http://www.w3.org/1999/xlink">
    <title>הוראת קבע כחול</title>
    <g id="הוראת-קבע-כחול" stroke="none" stroke-width="1" fill="none" fill-rule="evenodd">
        <g id="Group-4">
            <circle id="Oval-Copy-2" fill="#0D47A1" cx="47" cy="47" r="47"></circle>
            <g id="Newapp/Icons/Bubbles/Seperated/Communication-Copy-6" transform="translate(33.000000, 30.000000)" fill="#FFFFFF">
                <path d="M19,0 C21.757,0 24,2.243 24,5 L24,14.803 C24,15.3155714 23.6145765,15.7384694 23.1167533,15.7962682 L23,15.803 L23,15.803 C22.447,15.803 22,15.355 22,14.803 L22,5 C22,3.346 20.654,2 19,2 L2,2 L2,27 C2,28.654 3.346,30 5,30 L15,30 C15.553,30 16,30.447 16,31 C16,31.5135 15.6145765,31.935602 15.1167533,31.9932824 L15,32 L15,32 L5,32 C2.243,32 0,29.757 0,27 L0,1 C0,0.447 0.447,0 1,0 L19,0 Z M26.936,17.1488 C27.454,17.2608 27.895,17.5678 28.182,18.0118 L31.686,23.4628 C31.971,23.9038 32.067,24.4318 31.955,24.9488 C31.844,25.4668 31.537,25.9088 31.092,26.1958 L22.551,31.6858 C22.2818333,31.8591333 21.9814167,31.9616333 21.6723194,31.9909852 L21.486,31.9998 L21.486,31.9998 C21.344,31.9998 21.2,31.9848 21.058,31.9528 C20.542,31.8408 20.102,31.5338 19.817,31.0908 L19.216,30.155 L17.5024707,27.4880983 C17.4999248,27.4842554 17.4974012,27.4803893 17.4949,27.4765 L17.488,27.466 L17.328,27.216 L16.314,25.6398 C16.028,25.1958 15.934,24.6658 16.046,24.1488 C16.159,23.6318 16.466,23.1918 16.909,22.9068 L25.449,17.4168 C25.892,17.1328 26.419,17.0388 26.936,17.1488 Z M28.229,21.763 L19.707,27.242 L21.501,30.0108 L30.011,24.5128 L28.229,21.763 Z M26.499,19.0928 L17.989,24.5908 L18.62,25.563 L18.815,25.438 L27.142,20.085 L26.499,19.0928 Z M16,17.1533 C16.553,17.1533 17,17.6003 17,18.1533 C17,18.6668 16.6145765,19.088902 16.1167533,19.1465824 L16,19.1533 L16,19.1533 L6,19.1533 C5.447,19.1533 5,18.7063 5,18.1533 C5,17.6003 5.447,17.1533 6,17.1533 L16,17.1533 Z M12,12.1533 C12.553,12.1533 13,12.6003 13,13.1533 C13,13.6668 12.6145765,14.088902 12.1167533,14.1465824 L12,14.1533 L12,14.1533 L6,14.1533 C5.447,14.1533 5,13.7063 5,13.1533 C5,12.6003 5.447,12.1533 6,12.1533 L12,12.1533 Z M18,7.1533 C18.553,7.1533 19,7.6003 19,8.1533 C19,8.6668 18.6145765,9.08890204 18.1167533,9.14658243 L18,9.1533 L18,9.1533 L6,9.1533 C5.447,9.1533 5,8.7063 5,8.1533 C5,7.6003 5.447,7.1533 6,7.1533 L18,7.1533 Z" id="Combined-Shape"></path>
            </g>
        </g>
    </g>
</svg>