<?xml version="1.0" encoding="UTF-8"?>
<svg width="94px" height="94px" viewBox="0 0 94 94" version="1.1" xmlns="http://www.w3.org/2000/svg" xmlns:xlink="http://www.w3.org/1999/xlink">
    <title>ביקור ללא כרטיס סגול</title>
    <g id="ביקור-ללא-כרטיס-סגול" stroke="none" stroke-width="1" fill="none" fill-rule="evenodd">
        <g id="Group">
            <circle id="Oval-Copy-2" fill="#BF188D" cx="47" cy="47" r="47"></circle>
            <g transform="translate(31.000000, 33.000000)" fill="#FFFFFF" id="Newapp/Icons/Bubbles/Seperated/Communication-Copy-6">
                <path d="M26.78,5.18999997 C27.3322848,5.18999997 27.78,5.63771522 27.78,6.18999997 C27.78,6.74228472 27.3322848,7.18999997 26.78,7.18999997 L18.78,7.18999997 C18.2277153,7.18999997 17.78,6.74228472 17.78,6.18999997 C17.78,5.63771522 18.2277153,5.18999997 18.78,5.18999997 L26.78,5.18999997 Z M22.78,8.90999998 C23.3322848,8.90999998 23.78,9.35771523 23.78,9.90999998 C23.78,10.4622847 23.3322848,10.91 22.78,10.91 L18.78,10.91 C18.2277153,10.91 17.78,10.4622847 17.78,9.90999998 C17.78,9.35771523 18.2277153,8.90999998 18.78,8.90999998 L22.78,8.90999998 Z M24.68,31.79 C20.8140068,31.79 17.68,28.6559933 17.68,24.79 C17.68,20.9240068 20.8140068,17.79 24.68,17.79 C28.5459933,17.79 31.68,20.9240068 31.68,24.79 C31.68,28.6559933 28.5459933,31.79 24.68,31.79 Z M24.68,29.79 C27.4414238,29.79 29.68,27.5514238 29.68,24.79 C29.68,22.0285763 27.4414238,19.79 24.68,19.79 C21.9185763,19.79 19.68,22.0285763 19.68,24.79 C19.68,27.5514238 21.9185763,29.79 24.68,29.79 Z M22.7,25.79 C22.1477153,25.79 21.7,25.3422848 21.7,24.79 C21.7,24.2377153 22.1477153,23.79 22.7,23.79 L26.67,23.79 C27.2222848,23.79 27.67,24.2377153 27.67,24.79 C27.67,25.3422848 27.2222848,25.79 26.67,25.79 L22.7,25.79 Z M14,24 C14.5522847,24 15,24.4477153 15,25 C15,25.5522848 14.5522847,26 14,26 L4.99999995,26 C2.23857621,26 -4.68749325e-08,23.7614238 -4.68749325e-08,21 L-4.68749325e-08,4.99999995 C-4.68749325e-08,2.23857621 2.23857621,-4.68749931e-08 4.99999995,-4.68749931e-08 L27,-4.68749931e-08 C29.7614238,-4.68749931e-08 32,2.23857621 32,4.99999995 L32,15 C32,15.5522847 31.5522848,16 31,16 C30.4477153,16 30,15.5522847 30,15 L30,4.99999995 C30,3.34314571 28.6568543,1.99999995 27,1.99999995 L4.99999995,1.99999995 C3.34314571,1.99999995 1.99999995,3.34314571 1.99999995,4.99999995 L1.99999995,21 C1.99999995,22.6568543 3.34314571,24 4.99999995,24 L14,24 Z M12.5138184,14.1236402 L16.115936,15.4517419 L16.3120558,15.5496575 C16.9034752,15.9311475 17.2605479,16.5869955 17.2600006,17.2899998 L17.2600006,19.1199998 C17.2600006,19.6722846 16.8122853,20.12 16.2600005,20.12 C15.7077158,20.12 15.2600004,19.6722849 15.2600003,19.1200002 L15.2600003,17.289221 C15.2600065,17.2813293 15.2586829,17.2736159 15.2561816,17.2663598 L11.654064,15.9382581 L11.4579442,15.8403425 C10.8665248,15.4588525 10.5094521,14.8030045 10.51,14.1 L10.51,12.89 C10.51,12.5281668 10.6160161,12.3377709 10.8641852,12.0017099 C10.9497586,11.8858297 11.0511419,11.7594206 11.2377831,11.5295923 C11.2626187,11.498613 11.2626187,11.498613 11.2968183,11.4558155 C11.4335932,11.2890629 11.5088671,11.080349 11.51,10.87 L11.51,10.2686015 C11.51,9.36965036 11.51,9.36965036 11.5103409,9.09611109 C11.4864908,8.18301253 10.7374747,7.456272 9.81999998,7.45999997 L9.6581499,7.45983525 C8.75628512,7.47620672 8.02623963,8.19795624 7.99999997,9.06999998 L7.99999997,10.2686015 C7.99999997,10.5819973 7.99999997,10.5819973 7.99998583,10.8646814 C8.00113288,11.080349 8.07640676,11.2890629 8.22311082,11.4681178 C8.24738128,11.498613 8.24738128,11.498613 8.27221688,11.5295923 C8.45885807,11.7594206 8.56024134,11.8858297 8.64581474,12.0017099 C8.89398385,12.3377709 8.99999998,12.5281668 8.99999998,12.89 L8.99999967,14.129221 C9.00054791,14.8330045 8.64347513,15.4888525 8.05205574,15.8703425 C7.98718091,15.9121895 7.91767843,15.9463832 7.84493703,15.9722405 L5.28493702,16.8822405 C4.76455196,17.0672211 4.19274009,16.7953221 4.00775946,16.2749371 C3.82277883,15.754552 4.09467785,15.1827401 4.61506291,14.9977595 L6.99692644,14.1510814 C6.99894467,14.144386 7.00000557,14.1372988 6.99999998,14.13 L6.99999998,13.1407364 C6.94559206,13.0697702 6.86823718,12.9737115 6.71263218,12.7816688 C6.68495998,12.7471518 6.68495998,12.7471518 6.66681824,12.7241845 C6.23903277,12.2026393 6.00360171,11.5498531 5.99999997,10.87 L5.99999997,10.2686015 C5.99999997,9.36965036 5.99999997,9.36965036 6.00043741,9.04042492 C6.05868503,7.07180166 7.65268969,5.49591069 9.63999998,5.45997712 L9.81592768,5.45997712 C11.8167139,5.4518604 13.4574159,7.04376822 13.51,9.06999998 L13.51,10.2686015 C13.51,10.5819973 13.51,10.5819973 13.5099858,10.8753185 C13.5063983,11.5498531 13.2709672,12.2026393 12.8531108,12.7118821 C12.82504,12.7471518 12.82504,12.7471518 12.7973678,12.7816688 C12.6417627,12.9737116 12.5644078,13.0697703 12.5099999,13.1407365 L12.5099997,14.100779 C12.5099935,14.1086707 12.5113171,14.1163841 12.5138184,14.1236402 Z" id="Fill"></path>
            </g>
        </g>
    </g>
</svg>