<?xml version="1.0" encoding="UTF-8"?>
<svg width="94px" height="94px" viewBox="0 0 94 94" version="1.1" xmlns="http://www.w3.org/2000/svg" xmlns:xlink="http://www.w3.org/1999/xlink">
    <title>בקשות והודעות מהרופא כחול</title>
    <g id="בקשות-והודעות-מהרופא-כחול" stroke="none" stroke-width="1" fill="none" fill-rule="evenodd">
        <g id="Group">
            <circle id="Oval-Copy-2" fill="#0D47A1" cx="47" cy="47" r="47"></circle>
            <g transform="translate(31.000000, 31.000000)" fill="#FFFFFF" id="Newapp/Icons/Bubbles/Seperated/Communication-Copy-6">
                <path d="M6.90999997,7.99999998 C7.46228472,7.99999998 7.90999997,8.44771523 7.90999997,8.99999998 C7.90999997,9.55228473 7.46228472,9.99999998 6.90999997,9.99999998 L4.99999995,9.99999998 C3.34314571,9.99999998 1.99999995,11.3431457 1.99999995,13 L1.99999995,21 C1.99999995,22.6568543 3.34314571,24 4.99999995,24 L5.45999997,24 C6.01228472,24 6.45999997,24.4477153 6.45999997,25 L6.45999997,29.58 C6.45999997,29.9812998 6.5650103,30.0354561 6.62913116,29.955305 L6.72898733,29.8477284 L12.7289873,24.2677284 C12.9140149,24.0956527 13.1573239,24 13.41,24 L17,24 C17.5522848,24 18,24.4477153 18,25 C18,25.5522848 17.5522848,26 17,26 L13.8031327,26 L8.13880693,31.267823 C6.75946314,32.8899137 4.45999997,31.6777397 4.45999997,29.58 L4.45999997,25.9711791 C1.95254262,25.7019121 -4.68749628e-08,23.5789765 -4.68749628e-08,21 L-4.68749628e-08,13 C-4.68749628e-08,10.2385762 2.23857621,7.99999998 4.99999995,7.99999998 L6.90999997,7.99999998 Z M17,-4.68751144e-08 C17.5522848,-4.68751144e-08 18,0.447715203 18,0.999999953 C18,1.5522847 17.5522848,1.99999995 17,1.99999995 L14.91,1.99999995 C13.2531457,1.99999995 11.91,3.34314571 11.91,4.99999995 L11.91,13 C11.91,14.6568542 13.2531457,16 14.91,16 L18.5,16 C18.7512478,16 18.9932893,16.0945768 19.1779773,16.2649171 L25.2279773,21.8449171 L25.3308688,21.955305 C25.3949897,22.035456 25.5,21.9812998 25.5,21.58 L25.5,17 C25.5,16.4477153 25.9477153,16 26.5,16 L26.91,16 C28.5668543,16 29.91,14.6568542 29.91,13 L29.91,4.99999995 C29.91,3.34314571 28.5668543,1.99999995 26.91,1.99999995 L25,1.99999995 C24.4477153,1.99999995 24,1.5522847 24,0.999999953 C24,0.447715203 24.4477153,-4.68751144e-08 25,-4.68751144e-08 L26.91,-4.68751144e-08 C29.6714238,-4.68751144e-08 31.91,2.23857621 31.91,4.99999995 L31.91,13 C31.91,15.561809 29.9833658,17.6736284 27.5,17.9655557 L27.5,21.58 C27.5,23.6769794 25.2022033,24.889035 23.8226931,23.2695855 L18.1092537,18 L14.91,18 C12.1485762,18 9.90999998,15.7614237 9.90999998,13 L9.90999998,4.99999995 C9.90999998,2.23857621 12.1485762,-4.68751144e-08 14.91,-4.68751144e-08 L17,-4.68751144e-08 Z M21.06,8.07999998 C21.6951275,8.07999998 22.21,8.59487251 22.21,9.22999998 C22.21,9.86512744 21.6951275,10.38 21.06,10.38 C20.4248726,10.38 19.91,9.86512744 19.91,9.22999998 C19.91,8.59487251 20.4248726,8.07999998 21.06,8.07999998 Z M25.66,8.07999998 C26.2951275,8.07999998 26.81,8.59487251 26.81,9.22999998 C26.81,9.86512744 26.2951275,10.38 25.66,10.38 C25.0248726,10.38 24.51,9.86512744 24.51,9.22999998 C24.51,8.59487251 25.0248726,8.07999998 25.66,8.07999998 Z M16.46,8.07999998 C17.0951275,8.07999998 17.61,8.59487251 17.61,9.22999998 C17.61,9.86512744 17.0951275,10.38 16.46,10.38 C15.8248725,10.38 15.31,9.86512744 15.31,9.22999998 C15.31,8.59487251 15.8248725,8.07999998 16.46,8.07999998 Z" id="Fill"></path>
            </g>
        </g>
    </g>
</svg>