<?xml version="1.0" encoding="UTF-8"?>
<svg width="94px" height="94px" viewBox="0 0 94 94" version="1.1" xmlns="http://www.w3.org/2000/svg" xmlns:xlink="http://www.w3.org/1999/xlink">
    <title>החזר כספי סגול</title>
    <g id="החזר-כספי-סגול" stroke="none" stroke-width="1" fill="none" fill-rule="evenodd">
        <g id="Group">
            <circle id="Oval-Copy-2" fill="#BF188D" cx="47" cy="47" r="47"></circle>
            <g transform="translate(31.000000, 31.000000)" fill="#FFFFFF" id="Newapp/Icons/Bubbles/Seperated/Communication-Copy-6">
                <path d="M31.0001,23 C31.5531,23 32.0001,23.447 32.0001,24 L32.0001,29.736 C32.0001,30.984 31.0081,32 29.7881,32 L23.0001,32 C22.4471,32 22.0001,31.553 22.0001,31 L22.0001,24 C22.0001,23.447 22.4471,23 23.0001,23 C23.5531,23 24.0001,23.447 24.0001,24 L24.0001,30 L29.7881,30 C29.9031,30 30.0001,29.879 30.0001,29.736 L30.0001,24 C30.0001,23.447 30.4471,23 31.0001,23 Z M19,0 C21.757,0 24,2.243 24,5 L24,15.153 C24,15.706 23.553,16.153 23,16.153 C22.447,16.153 22,15.706 22,15.153 L22,5 C22,3.346 20.654,2 19,2 L2,2 L2,27 C2,28.654 3.346,30 5,30 L16,30 C16.553,30 17,30.447 17,31 C17,31.553 16.553,32 16,32 L5,32 C2.243,32 0,29.757 0,27 L0,1 C0,0.447 0.447,0 1,0 L19,0 Z M25.788,19.0049 C27.008,19.0049 28,20.0209 28,21.2689 L28,27.0049 C28,27.5579 27.553,28.0049 27,28.0049 C26.447,28.0049 26,27.5579 26,27.0049 L26,21.2689 C26,21.1259 25.903,21.0049 25.788,21.0049 L20,21.0049 L20,27.0049 C20,27.5579 19.553,28.0049 19,28.0049 C18.447,28.0049 18,27.5579 18,27.0049 L18,20.0049 C18,19.4519 18.447,19.0049 19,19.0049 L25.788,19.0049 Z M14,17.1533 C14.553,17.1533 15,17.6003 15,18.1533 C15,18.7063 14.553,19.1533 14,19.1533 L6,19.1533 C5.447,19.1533 5,18.7063 5,18.1533 C5,17.6003 5.447,17.1533 6,17.1533 L14,17.1533 Z M12,12.1533 C12.553,12.1533 13,12.6003 13,13.1533 C13,13.7063 12.553,14.1533 12,14.1533 L6,14.1533 C5.447,14.1533 5,13.7063 5,13.1533 C5,12.6003 5.447,12.1533 6,12.1533 L12,12.1533 Z M18,7.1533 C18.553,7.1533 19,7.6003 19,8.1533 C19,8.7063 18.553,9.1533 18,9.1533 L6,9.1533 C5.447,9.1533 5,8.7063 5,8.1533 C5,7.6003 5.447,7.1533 6,7.1533 L18,7.1533 Z" id="Fill"></path>
            </g>
        </g>
    </g>
</svg>